<?xml version="1.0" encoding="UTF-8"?>
<svg xmlns="http://www.w3.org/2000/svg" version="1.1" width="300" height="300" viewBox="0 0 300 300"><rect x="0" y="0" width="300" height="300" fill="#ffffff"/><g transform="scale(12)"><g transform="translate(0,0)"><path fill-rule="evenodd" d="M8 0L8 1L11 1L11 3L10 3L10 2L9 2L9 3L10 3L10 5L9 5L9 6L8 6L8 8L9 8L9 9L10 9L10 10L9 10L9 11L8 11L8 12L4 12L4 10L5 10L5 8L3 8L3 9L2 9L2 8L0 8L0 9L2 9L2 10L3 10L3 11L2 11L2 12L1 12L1 13L0 13L0 17L1 17L1 15L2 15L2 17L4 17L4 15L5 15L5 16L6 16L6 17L8 17L8 18L9 18L9 16L6 16L6 15L8 15L8 14L9 14L9 15L11 15L11 14L13 14L13 15L12 15L12 16L11 16L11 17L13 17L13 18L14 18L14 17L15 17L15 16L16 16L16 19L15 19L15 20L14 20L14 19L12 19L12 18L10 18L10 19L11 19L11 20L8 20L8 22L9 22L9 23L8 23L8 25L13 25L13 24L12 24L12 21L11 21L11 20L14 20L14 21L13 21L13 22L15 22L15 23L14 23L14 24L15 24L15 23L18 23L18 22L19 22L19 24L16 24L16 25L19 25L19 24L21 24L21 25L22 25L22 24L24 24L24 25L25 25L25 21L24 21L24 20L25 20L25 18L24 18L24 16L25 16L25 14L24 14L24 13L25 13L25 10L24 10L24 9L25 9L25 8L24 8L24 9L19 9L19 8L18 8L18 9L19 9L19 10L16 10L16 8L17 8L17 5L16 5L16 8L15 8L15 6L14 6L14 7L13 7L13 6L12 6L12 5L13 5L13 4L16 4L16 3L17 3L17 2L16 2L16 3L14 3L14 2L15 2L15 1L12 1L12 0ZM16 0L16 1L17 1L17 0ZM12 2L12 3L13 3L13 2ZM10 5L10 6L9 6L9 7L10 7L10 9L13 9L13 10L12 10L12 11L11 11L11 10L10 10L10 11L9 11L9 12L11 12L11 13L12 13L12 12L13 12L13 13L14 13L14 15L13 15L13 16L14 16L14 15L15 15L15 13L14 13L14 12L15 12L15 11L14 11L14 10L15 10L15 8L11 8L11 7L12 7L12 6L11 6L11 5ZM10 6L10 7L11 7L11 6ZM6 8L6 9L7 9L7 8ZM3 9L3 10L4 10L4 9ZM0 10L0 11L1 11L1 10ZM6 10L6 11L7 11L7 10ZM20 10L20 11L21 11L21 10ZM22 10L22 11L24 11L24 10ZM17 11L17 12L16 12L16 13L17 13L17 14L16 14L16 16L17 16L17 15L18 15L18 14L20 14L20 16L21 16L21 18L22 18L22 19L21 19L21 20L22 20L22 22L21 22L21 21L19 21L19 22L21 22L21 24L22 24L22 22L23 22L23 20L24 20L24 18L23 18L23 17L22 17L22 15L21 15L21 14L23 14L23 13L24 13L24 12L20 12L20 13L18 13L18 12L19 12L19 11ZM2 12L2 13L1 13L1 14L2 14L2 15L3 15L3 14L2 14L2 13L3 13L3 12ZM6 13L6 14L5 14L5 15L6 15L6 14L7 14L7 13ZM20 13L20 14L21 14L21 13ZM23 15L23 16L24 16L24 15ZM17 17L17 20L20 20L20 17ZM18 18L18 19L19 19L19 18ZM9 21L9 22L10 22L10 23L9 23L9 24L10 24L10 23L11 23L11 21ZM15 21L15 22L16 22L16 21ZM0 0L0 7L7 7L7 0ZM1 1L1 6L6 6L6 1ZM2 2L2 5L5 5L5 2ZM18 0L18 7L25 7L25 0ZM19 1L19 6L24 6L24 1ZM20 2L20 5L23 5L23 2ZM0 18L0 25L7 25L7 18ZM1 19L1 24L6 24L6 19ZM2 20L2 23L5 23L5 20Z" fill="#000000"/></g></g></svg>
